<mxfile host="app.diagrams.net" agent="Mozilla/5.0 (Macintosh; Intel Mac OS X 10_15_7) AppleWebKit/537.36 (KHTML, like Gecko) Chrome/136.0.0.0 Safari/537.36" version="27.1.0">
  <diagram name="Page-1" id="80n29I5SFY9mNu651d-D">
    <mxGraphModel dx="958" dy="668" grid="1" gridSize="10" guides="1" tooltips="1" connect="1" arrows="1" fold="1" page="1" pageScale="1" pageWidth="850" pageHeight="1100" math="0" shadow="0">
      <root>
        <mxCell id="0" />
        <mxCell id="1" parent="0" />
        <mxCell id="JfntTd8DiVlKNzFgZhK2-1" value="Rosewill RSV-L4000&lt;br style=&quot;font-size: 14px;&quot;&gt;&lt;font style=&quot;font-size: 14px;&quot;&gt;&lt;b style=&quot;font-size: 14px;&quot;&gt;&lt;font style=&quot;font-size: 14px;&quot; color=&quot;#078ddb&quot;&gt;Windows 10&lt;/font&gt;&lt;br style=&quot;font-size: 14px;&quot;&gt;&lt;/b&gt;&lt;/font&gt;" style="shape=stencil(zd1NbxpHAMbxz9IDR4/2ZfZljpXbnqoeUql3F69jyyRYQJu2n76zQFzB8wS6rtL9W5GxF+/ynwGGX8AJi/p2+3j3Miyq4uPdh2FRf7eoqnfr7fDpabXKG9/9/MvNj7Eoirw5f/t4+IGuCVVz2PLpsKVsi5DGLfX3i+LbvH38U98+rDfD+836t4/3J2d8Pnu726yf80Xd7x7HQ+1P94crwvHwi+qHC3su16v1Jm84nO73XFR1jPHyzg95bH7Xavx8adfNsNzlr/44Zh5++M/jrITmS7PyOnN5w5VLGOMOo3vTCPLH22du4vDL16vpOAN9KM5noE5nM9CkrzwD1wcx3h7PRnI6jrIKdXc2kBBPh3H47m6z3D79dbzfNMX1gf23rj70xK6qYc5XXTLnq+6Z8xUjc76akjlfTUeZrxwyfQ0rQzdfXhPa88cKytRVVSixbT133uqGO2+x5M5b7Lnz1kTuvLXl1Xn735a4/FeWtp66AM+WRnGkpmEoqWkYTZo0Cig1DWNKTcOw0qRRZFnVIUauLF0eRZamDSNL10aRpWnDyNK0YWTp2iiyNG0YWZo2lCzbULVTF+DZ0jCylDSOLCWNI0tNw8hS0jiylDSOLDUNI8sUiu502UXJ0uRhZKltHFmaNowstY0jS23jyNK0YWSpbRxZahtJliM70tQFeLY0iiw1DSNLTcPI0qRRZKlpGFlqGkaWJo0iyzqGruDK0uVRZGnaMLJ0bRRZmjaMLE0bRpaujSJL04aRpWlDyXL8XdipC/BsaRhZShpHlpLGkaWmYWQpaRxZShpHlppGkWUsQl1zZenyKLI0bRhZujaKLE0bRpamDSNL10aRpWnDyNK0kWQZ60D9xzomjSJLTcPIUtMwsjRpFFlqGkaWmoaRpUnDyLIJqQXL0uRhZKltHFmaNowstY0jS23jyNK0YWSpbRxZahtKln3o+qkL8GxpGFlKGkeWksaRpaZhZClpHFlKGkeWmkaRZZ6jJnFl6fIosjRtGFm6NoosTRtGlqYNI0vXRpGlacPI0rSRZJnnKZZTF+DZ0iiy1DSMLDUNI0uTRpGlpmFkqWkYWZo0jCy78HpRRFmaPIwstY0jS9OGkaW2cWSpbRxZmjaMLLWNI0ttI8myLUIRpy7As6VRZKlpGFlqGkaWJo0iS03DyFLTMLI0aRRZtlXoe64sXR5FlqYNI0vXRpGlacPI0rRhZOnaKLI0bRhZmjaULPN61k1dgGdLw8hS0jiylDSOLDUNI0tJ48hS0jiy1DSMLPsQybI0eRhZahtHlqYNI0tt48hS2ziyNG0YWWobR5baRpJllx+lpq6/c5VRXCllGFZKGUaVWkZBpZRhTCllGFJqGUWUXQwl+L13XB5FlKYNI0rXRhGlacOI0rRhROnaKKI0bRhRmjaUKNuQqKSUNI7cJI1DN03D2E3SOHiTNI7eNG0Wvn1zc5O/+GkY7vPJbp0/bYYP69/HN5rdPY6ff30aqx/2byt72LJaL5/HpmEzfpf3/7dDTq/LH1GFUsfBjaRxbCNpHNpoGkY2ksaBjaSRXNNXoYG+BqtpGNdoGsY1Jo3iGk3DuEbTMK4xaZSnpfp8fwS/0OnyKE9LmTbM01KujSI304ahm2nD2M21UfBm2jB6M20ovvWhmrr+zlVGeaFTyjisPC/jqFLKMKg8L+OY8ryMQ0opo4gylaEAv9Dp8iiiNG0YUbo2iihNG0aUpg0jStdGEaVpw4jStJFEmerQQ1/oNGkUU2oaBpWahlGlSaOwUtMwrtQ0DCxNGkaWbWgjWJYmDyNLbePI0rRhZKltHFlqG0eWpg0jS23jyFLbULJMIbZTF+DZ0jCylDSOLCWNI0tNw8hS0jiylDSOLDWNIsuyqEIF/j0820expYvD4NLGUXTp4jC8dHEYX9o4CjBdHEaYLo5EzLJoQpGmrsTztVGQadowyjRtGGa6NoozTRsGmqYNI03XxqFmF1JBpqbp41BT40DUNHEcamociJoaB6KmieNQU+NA1NQ4FDXLInTV1JV4vjYMNbWNQ01t41DTtGGoqW0camobh5qmDUPNsg5NDaam68NQ08RxqOniMNQ0cRxqmjgONV0chpomjkNNE8eiZhumr8TztXGoKW0gakobiJraxqGmtIGoKW0gamobh5oplC2ZmqaPQ02NA1HTxHGoqXEgamociJomjkNNjQNRU+NQ1MwXlfqpK/F8bRhqahuHmtrGoaZpw1BT2zjU1DYONU0bhppVDF0CU9P1Yahp4jjUdHEYapo4DjVNHIeaLg5DTRPHoaaJY1GzC205dSWer41DTWkDUVPaQNTUNg41pQ1ETWkDUVPbMNSsixCr0/UXRU3Xh6GmieNQ08VhqGniONQ0cRxqujgMNU0ch5omDkXNug5VnLoSz9eGoaa2caipbRxqmjYMNbWNQ01t41DTtHGo2YaiIVPT9HGoqXEgapo4DjU1DkRNjQNR08RxqKlxIGpqHIuaI96mrsTztXGoKW0gakobiJraxqGmtIGoKW0gamobhprjYyj4PX9sH4aaJo5DTReHoaaJ41DTxHGo6eIw1DRxHGqaOBQ184Pp5IV4tjQMNCWN40xJ4zBT0zDKlDQOMiWNY0xNm4WY49nL9Wr/ZtiH0/1RF1W9XC4vH3m726yfB79zSunyzsNq9fSyHf6ZkPHtw8+WLJ2Q7mQ6uusjPzS+afwxxsvHP71CuyT9SW9rJ/1Xjv/ma+5q+aVrLn9MGfbp/wnbh+Ls0fnsBpw+v/HVW+9Jp3eipgjpKwR88VZT3+YtD+vN8H5/lz6et9+6fbx7GQ4b/gY=);html=1;labelPosition=left;align=right;spacingLeft=0;dashed=0;shadow=0;fillColor=#ffffff;verticalLabelPosition=middle;verticalAlign=middle;strokeWidth=1;sketch=0;spacingRight=40;fontColor=#EEEEEE;fontSize=14;fontFamily=Roboto Condensed;" vertex="1" parent="1">
          <mxGeometry x="250" y="250" width="436" height="200" as="geometry" />
        </mxCell>
      </root>
    </mxGraphModel>
  </diagram>
</mxfile>
